<svg xmlns="http://www.w3.org/2000/svg" width="190" height="60" stroke="none" stroke-linecap="round" stroke-linejoin="round" fill="#fff" fill-rule="nonzero"><path d="M110.3116 27.2274h3.9012V41.16h-3.9012v-1.8112c-1.393 2.1-3.2044 2.2292-4.32 2.2292-4.32 0-7.1055-3.3438-7.1055-7.3842 0-4.1798 2.7864-7.3843 6.8268-7.3843 1.1146 0 3.2046.1394 4.4585 2.2292v-1.8112zm-7.245 6.9663c0 2.2292 1.5327 3.9 3.9 3.9 1.0428.027 2.05-.3752 2.7884-1.1128a3.804 3.804 0 0 0 1.1128-2.7883c0-2.2292-1.5326-3.9-3.9012-3.9-1.0426-.0272-2.0507.3752-2.7883 1.1127a3.804 3.804 0 0 0-1.1128 2.7884zm18.8-3.6225V41.16h-3.9V30.5712h-1.5326v-3.3438h1.5326v-4.737h3.9v4.737h2.6472v3.3438zm11.8426 0c-.9753-.836-1.8112-.9753-2.2292-.9753-.9753 0-1.5326.418-1.5326 1.1146 0 .418.1393.836 1.254 1.254l.9753.2786c1.1146.418 2.7866.836 3.483 1.9506.418.5573.6966 1.3932.6966 2.3685 0 1.254-.418 2.5078-1.5326 3.483s-2.5077 1.5326-4.1797 1.5326c-2.9258 0-4.4584-1.3933-5.4337-2.3686l2.1-2.3685c.836.836 1.9506 1.672 3.0652 1.672s1.9506-.5572 1.9506-1.5325c0-.836-.6967-1.254-1.254-1.3933l-.836-.2786c-.9753-.418-2.1-.836-2.926-1.672-.6966-.6967-1.1146-1.5326-1.1146-2.6472 0-1.3933.6966-2.508 1.3933-3.2045 1.1146-.836 2.5078-.9753 3.6224-.9753.9753 0 2.6472.1394 4.4584 1.5326zm8.4988-1.5326c1.3932-1.9505 3.3438-2.2292 4.4584-2.2292 4.0405 0 6.827 3.2045 6.827 7.3843s-2.7864 7.3842-6.9663 7.3842c-.836 0-2.9258-.1393-4.4583-2.2292V41.16h-3.762V17.7533h3.9012zm-.418 5.155c0 2.2292 1.5327 3.9 3.9012 3.9 1.0427.027 2.0508-.3752 2.7883-1.1128s1.14-1.7456 1.1128-2.7883c0-2.2292-1.5325-3.9-3.9-3.9s-3.9012 1.672-3.9012 3.9zm18.1124 4.8763l-6.6876-11.8426h4.5977l4.32 7.9415 3.9-7.9415H170.5L159.354 48.544h-4.4585zm-61.9996-9.474H88.16v3.9h5.155c-.836 2.6472-2.7865 4.4585-6.4 4.4585-4.0404 0-6.9663-3.344-6.9663-7.3843s2.7866-7.5235 6.827-7.5235c2.23 0 4.4583 1.1146 5.8516 2.9258l3.2045-2.1c-2.1-2.9258-5.4337-4.5977-9.056-4.5977-6.1304 0-11.146 5.0157-11.146 11.2853s4.737 11.2853 11.146 11.2853 11.146-5.0157 11.146-11.2853c.1393-.418 0-.6966 0-.9753zm-34.8018.7663H51.18v3.4093h8.18c-1.1925 5.1132-4.9432 9.3738-9.885 11.08L29.875 25.25c2.0453-5.966 7.84-10.2126 14.487-10.2126 5.1133 0 9.715 2.5567 12.613 6.4787l2.5567-2.2292c-3.4094-4.602-8.8612-7.67-15.1698-7.67-8.86 0-16.3623 6.306-18.2515 14.657l22.498 22.4982c8.1965-2.0467 14.5024-9.548 14.5024-18.4zm-37.498.17c0 4.772 1.8753 9.3738 5.4545 12.953s8.3512 5.4546 12.953 5.4546z"/><path d="M44.3622 6.5C31.2378 6.5 20.5 17.2378 20.5 30.3622s10.7378 23.8622 23.8622 23.8622 23.8622-10.7378 23.8622-23.8622S57.4866 6.5 44.3622 6.5zM31.0678 43.658c-3.5806-3.5807-5.4546-8.351-5.4546-12.953l18.5776 18.4077c-4.772-.17-9.5437-1.8754-13.1244-5.4546zm17.3836 4.9558l-22.327-22.3422c1.8754-8.351 9.3738-14.657 18.2516-14.657 6.306 0 11.76 3.068 15.1697 7.67l-2.5566 2.2292c-2.898-3.9206-7.5-6.4787-12.613-6.4787-6.6458 0-12.2717 4.2606-14.487 10.2265l19.6002 19.6003c4.9433-1.704 8.694-5.966 9.8852-11.0792H51.182v-3.4204h11.9304c0 8.861-6.3058 16.3623-14.657 18.2516z" fill="#639"/></svg>