<svg xmlns="http://www.w3.org/2000/svg" width="190" height="60" stroke="none" stroke-linecap="round" stroke-linejoin="round" fill="#e10098" fill-rule="nonzero"><path d="M78.3333 21.6575q-1.1618 0-2.1203.3093-.9294.2847-1.6294.9585-.6723.6462-1.0862 1.6817-.3877 1.034-.44 2.4687-.0813 2.328 0 4.656.0523 1.4478.44 2.4687.414 1.034 1.0862 1.708.697.6462 1.6294.9584.9585.2847 2.1203.2847 1.1414 0 2.1202-.3094.9788-.337 1.6817-.9788.726-.6724 1.1414-1.7078.414-1.034.414-2.43v-1.3186h-4.5062q-.5693 0-.5693-.581v-.363q0-.581.5693-.581h5.533q.581 0 .581.581v2.2756q0 1.5538-.4648 2.8463-.4646 1.2678-1.371 2.2016-.8786.9294-2.2015 1.448-1.307.4908-2.948.4908-1.6816 0-2.948-.4908-1.268-.517-2.1465-1.4232-.854-.9048-1.3185-2.1464-.44-1.2678-.49-2.794-.0522-1.1618-.0522-2.457 0-1.307.0522-2.4572.0523-1.5248.517-2.768.4646-1.2678 1.3186-2.1725.8786-.9048 2.1464-1.397 1.2678-.517 2.9218-.517 1.7863 0 3.0526.5432 1.2678.543 2.0694 1.307.8016.7507 1.191 1.5785.3877.8278.414 1.371.026.2324-.1307.3878-.1554.1307-.414.1307h-.5693q-.2324 0-.337-.1017-.1016-.1307-.2062-.414-.2062-.581-.58-1.1617-.363-.58-.9787-1.034-.62-.4647-1.474-.7508-.854-.2847-2.0185-.2847zm12.2103 5.1452q.9294-1.7862 3.5172-1.7862h.9584q.5694 0 .5694.5693v.363q0 .5693-.5694.5693H93.907q-1.554 0-2.457.9047-.9048.9047-.9048 2.4572v8.0162q0 .2585-.1815.414-.1554.1554-.414.1554h-.4138q-.5693 0-.5693-.5693V25.6105q0-.2585.1554-.414.1554-.1816.414-.1816h.4138q.2585 0 .414.1816.1815.1554.1815.414v1.1908zm15.9744 11.67q-.5692 0-.5692-.5693V36.688q-.2324.363-.6202.726-.363.363-.9047.6462-.543.2847-1.307.4647-.7508.2062-1.7572.2062-.9294 0-1.7863-.2846-.8277-.3093-1.474-.8277-.62-.517-1.008-1.2156-.363-.697-.363-1.5248 0-.8786.363-1.5785.3878-.697 1.0602-1.2156.6724-.543 1.6032-.8785.9584-.363 2.0955-.517l4.0866-.5693v-.9047q0-1.397-.854-2.1726-.8277-.7755-2.6634-.7755-1.448 0-2.251.5693-.7755.5432-.9788 1.1908-.1017.3094-.2585.44-.1307.1016-.363.1016h-.363q-.2324 0-.414-.1554-.1554-.1815-.1554-.4138 0-.363.2586-.9048.2584-.543.8277-1.06.581-.517 1.5002-.8786.9046-.3877 2.2015-.3877 1.525 0 2.5095.4138 1.0078.414 1.5785 1.0863.5692.6463.7755 1.448.2324.8016.2324 1.5785v8.6117q0 .5693-.5693.5693h-.44zm-4.888-1.2417q.8785 0 1.6554-.2846.8017-.3094 1.397-.9048.5808-.5808.9294-1.5.337-.9047.337-2.1202v-.8786l-3.3358.4647q-4.2928.581-4.2928 2.7418 0 .6462.2846 1.1124.3094.4647.7755.7754.4647.3094 1.0602.4648.5808.1307 1.1908.1307zm15.9105 1.5q-1.6294 0-2.6635-.5808-1.034-.581-1.6816-1.448v6.1284q0 .5692-.5692.5692h-.44q-.5693 0-.5693-.5692v-17.245q0-.5693.5693-.5693h.44q.5692 0 .5692.5693v1.2155q.6463-.8786 1.6816-1.448 1.034-.581 2.6635-.581 1.5 0 2.5342.5432 1.06.517 1.7077 1.397.6463.854.9295 1.9663.3093 1.0863.363 2.2248.026.3877.026.854 0 .4647-.026.854-.0523 1.1414-.363 2.251-.2847 1.0863-.9295 1.9663-.6462.854-1.7077 1.397-1.034.517-2.5342.517zm-4.345-7.9145q-.026.3877-.026 1.0078 0 .62.026 1.0078.026.7755.2586 1.5786.2585.7755.7754 1.397.517.62 1.307 1.034.7755.3878 1.8618.3878 1.1414 0 1.888-.3878.7754-.3877 1.2416-1.034.4908-.6723.697-1.5248.2324-.8786.2847-1.811.026-.726 0-1.448-.0523-.9294-.2847-1.7862-.2062-.854-.697-1.5002-.4647-.6723-1.2416-1.06-.751-.414-1.888-.414-1.1124 0-1.888.414-.7754.414-1.307 1.0863-.4907.6462-.7507 1.4478-.2324.8017-.2586 1.6033zm15.0058-4.014q.697-.9047 1.6817-1.474.9788-.5692 2.6634-.5692 1.3186 0 2.3018.44.9788.44 1.6293 1.2155.6724.7754 1.008 1.837.3368 1.0602.3368 2.3018v7.3453q0 .5693-.5692.5693h-.4356q-.5693 0-.5693-.5693v-7.2175q0-2.0694-1.008-3.2326-1.0078-1.191-2.948-1.191-1.8618 0-2.9742 1.1618-1.1125 1.1618-1.1125 3.263v7.2176q0 .5693-.5692.5693h-.44q-.5692 0-.5692-.5693V20.67q0-.5693.5692-.5693h.44q.5692 0 .5692.5693v6.1284zm20.1714-6.6976q1.5 0 2.7418.44 1.2416.44 2.1203 1.3448.9046.8786 1.397 2.2248.517 1.3186.5692 3.1295.0523 1.1618.0523 2.1725 0 1.008-.0523 2.1725-.1307 3.699-1.888 5.4313l1.6555 2.328q.0262.0523.0523.1017.0262.0523.0262.1815 0 .2062-.1554.363-.1554.1554-.363.1554h-.5692q-.2846 0-.491-.2324-.2062-.2062-.337-.363L152 37.976q-1.554.7508-3.622.7508-3.2326 0-4.9912-1.7325-1.7326-1.7325-1.8372-5.4052-.0522-1.1617-.0522-2.1725 0-1.0078.0522-2.1725.0524-1.811.5432-3.1295.517-1.3448 1.397-2.2248.9048-.9048 2.1203-1.3448 1.2416-.44 2.768-.44zm0 1.554q-1.0863 0-2.0186.337-.9295.3093-1.6294 1.0078-.697.697-1.1124 1.7862-.3877 1.0863-.44 2.585-.026.581-.0523 1.0863 0 .4908 0 .9584 0 .4647 0 .9788.0262.491.0523 1.06.0523 1.525.44 2.614.4138 1.0602 1.0863 1.7572.697.697 1.6294 1.034.9294.3093 2.039.3093 1.1124 0 2.039-.3093.9294-.337 1.6032-1.034.697-.697 1.0863-1.7572.414-1.0862.4647-2.614.0262-.5692.0262-1.06 0-.517 0-.9788 0-.4647 0-.9584 0-.491-.0262-1.0863-.0523-1.5002-.4647-2.585-.3878-1.0862-1.0863-1.7862-.697-.697-1.6294-1.0078-.9294-.337-2.0185-.337zm12.6242 15.257h8.9224q.581 0 .581.581v.3877q0 .5693-.581.5693h-9.9826q-.5693 0-.5693-.5693V20.9314q0-.5693.5693-.5693h.491q.5693 0 .5693.5693v15.983zM24.344 44.196l-1.7426-1.008 19.4278-33.648 1.7426 1.0078z"/><path d="M22.205 40.5015h38.8557v2.0142H22.205z"/><path d="M42.4096 52.854L22.973 41.6327 23.981 39.9l19.435 11.2184zm16.8836-29.2477L39.858 12.3865l1.0078-1.7427L60.3 21.865z"/><path d="M23.9853 23.6005l-1.0078-1.7427 19.45-11.2082 1.008 1.7427z"/><path d="M58.9345 44.196L39.5052 10.548l1.7427-1.0078 19.4278 33.648zM23.7457 20.522h2.0113v22.4426h-2.0113zm33.7728 0h2.0143v22.4426H57.517z"/><path d="M42.0654 52.0016l-.88-1.5248 16.9038-9.759.88 1.5248z"/><path d="M62.202 43.6194c-1.1708 2.025-3.76 2.7196-5.787 1.5524s-2.7196-3.76-1.5524-5.787 3.76-2.7196 5.787-1.5524c2.039 1.1618 2.7302 3.7757 1.554 5.787M28.406 24.1015c-1.1707 2.025-3.76 2.7196-5.787 1.5525s-2.7196-3.76-1.5524-5.787 3.76-2.7196 5.787-1.5524c2.026 1.1617 2.7156 3.7757 1.554 5.787m-7.328 19.518c-1.1647-2.026-.4733-4.6093 1.554-5.787 2.0258-1.1647 4.6094-.4734 5.787 1.554 1.1647 2.0258.4734 4.6093-1.5538 5.787-2.04 1.1647-4.6225.4735-5.7872-1.5538m33.7976-19.518c-1.1647-2.0258-.4734-4.6093 1.5538-5.787 2.026-1.1647 4.6094-.4735 5.787 1.5538 1.1648 2.026.4735 4.6094-1.5538 5.787-2.027 1.1672-4.6164.4726-5.787-1.5524M41.637 55.5c-2.34 0-4.2332-1.8922-4.2332-4.2332s1.8966-4.2333 4.2332-4.2333 4.2332 1.8923 4.2332 4.2333-1.897 4.2292-4.2332 4.2332m0-39.0386c-2.34 0-4.2332-1.8922-4.2332-4.2332S39.3005 7.995 41.637 7.995s4.2332 1.8922 4.2332 4.2332c.002 1.1233-.4434 2.2012-1.2377 2.9955s-1.8722 1.2397-2.9955 1.2377"/></svg>