<svg xmlns="http://www.w3.org/2000/svg" width="190" height="60" stroke="#000" stroke-linecap="round" stroke-linejoin="round" fill="#fff" fill-rule="evenodd"><path d="M47.3258 30.105a4.766 4.766 0 0 1 4.7762-4.7762c2.646 0 4.7763 2.1302 4.7763 4.7762s-2.1303 4.7764-4.7763 4.7764-4.7762-2.1303-4.7762-4.7764z" stroke="none" fill="#00d8ff"/><g stroke="#00d8ff" fill="none" stroke-width="4.8274"><path d="M52.1022 20.394c6.4127 0 12.37.9202 16.862 2.4665 5.412 1.8632 8.7393 4.6874 8.7393 7.2446 0 2.665-3.5264 5.6652-9.3382 7.5908-4.3937 1.4557-10.1756 2.2156-16.263 2.2156-6.2412 0-12.1514-.7134-16.5947-2.2317C29.886 35.7582 26.5 32.719 26.5 30.105c0-2.5365 3.177-5.3388 8.513-7.199 4.5086-1.572 10.613-2.512 17.0884-2.512z"/><path d="M43.6485 25.2775c3.2036-5.5552 6.9767-10.256 10.5604-13.3748 4.3176-3.7574 8.4264-5.229 10.6415-3.9515 2.3086 1.3313 3.146 5.885 1.9107 11.8815-.933 4.5336-3.1642 9.9217-6.2053 15.195-3.118 5.4066-6.6883 10.17-10.223 13.2597-4.4728 3.9-8.797 5.325-11.0616 4.02-2.1974-1.2662-3.0377-5.4192-1.9836-10.97.8907-4.691 3.126-10.4485 6.3598-16.058z"/><path d="M43.6563 35.042c-3.2127-5.5488-5.4-11.1666-6.313-15.8287-1.099-5.6172-.322-9.912 1.8912-11.1932 2.3062-1.335 6.6697.2137 11.2478 4.2787 3.4612 3.0733 7.0156 7.6963 10.0655 12.9647 3.127 5.4014 5.4706 10.8736 6.3823 15.479 1.1536 5.828.22 10.281-2.0425 11.5906-2.195 1.2708-6.2123-.0747-10.4956-3.7607-3.619-3.1143-7.491-7.9264-10.7356-13.5304z"/></g><path d="M105.1197 42.308l-5.8543-8.8446c2.9588-.261 5.6248-2.405 5.6248-6.3215 0-3.9853-2.8282-6.536-6.7956-6.536H89.382v21.6854h2.7V33.675h4.3247l5.5272 8.6164zm-7.348-10.99h-5.6893v-8.2907h5.6893c2.57 0 4.3247 1.6903 4.3247 4.1296s-1.7562 4.164-4.3247 4.164zm17.395 11.3788c2.57 0 4.682-.8452 6.2432-2.405l-1.1708-1.5942c-1.237 1.2684-3.0564 1.983-4.8443 1.983-3.3806 0-5.4625-2.471-5.6576-5.4283h12.7117v-.6184c0-4.7136-2.7967-8.4213-7.5446-8.4213-4.487 0-7.737 3.6747-7.737 8.2262 0 4.91 3.349 8.2455 7.998 8.2455zm4.8787-9.235h-10.307c.1305-2.405 1.7865-5.236 5.1368-5.236 3.5772 0 5.137 2.8942 5.17 5.236zm18.599 8.8447V31.512c0-3.804-2.7623-5.3005-6.0798-5.3005-2.5697 0-4.5844.845-6.2747 2.6015l1.1378 1.6903c1.3977-1.4952 2.9272-2.1782 4.8127-2.1782 2.2756 0 3.9674 1.2024 3.9674 3.316v2.8282c-1.2684-1.4637-3.0563-2.1466-5.203-2.1466-2.666 0-5.497 1.6587-5.497 5.1698 0 3.4137 2.8282 5.203 5.497 5.203 2.1137 0 3.903-.7476 5.203-2.178v1.7865zm-6.7614-1.366c-2.2757 0-3.8698-1.4292-3.8698-3.4135 0-2.016 1.594-3.4467 3.8698-3.4467 1.7233 0 3.3806.65 4.3248 1.9515v2.9586c-.9428 1.3-2.6015 1.9515-4.3248 1.9515zm18.5523 1.7563c2.8612 0 4.5514-1.171 5.7553-2.7307l-1.6257-1.495c-1.0403 1.3976-2.3734 2.0477-3.9854 2.0477-3.349 0-5.428-2.6015-5.428-6.0797s2.0806-6.0467 5.428-6.0467c1.6258 0 2.9588.6185 3.9854 2.0477l1.6257-1.4952c-1.2025-1.561-2.894-2.7306-5.7553-2.7306-4.682 0-7.836 3.577-7.836 8.226 0 4.682 3.1538 8.2455 7.836 8.2455zm13.1376 0c1.4293 0 2.3087-.4233 2.9272-1.0074l-.7146-1.8208c-.3256.3573-.962.65-1.6587.65-1.072 0-1.594-.8453-1.594-2.016v-9.7543h3.1882v-2.1453h-3.1882v-4.2917h-2.4393v4.2917h-2.6014v2.1466h2.6014V39.025c0 2.3416 1.171 3.6747 3.4795 3.6747z" stroke="none" fill="#00d8ff"/></svg>