<svg xmlns="http://www.w3.org/2000/svg" width="216" height="70" stroke="none" stroke-linecap="round" stroke-linejoin="round" fill="#fff" fill-rule="nonzero"><path d="M127.2488 31.1365h5.2016v18.5767h-5.2016v-2.415c-1.8575 2.7865-4.2726 2.9722-5.7587 2.9722-5.7588 0-9.474-4.4584-9.474-9.8456 0-5.573 3.7152-9.8457 9.1025-9.8457 1.486 0 4.2727.1858 5.9445 2.9723v-2.415zm-9.66 9.2884c0 2.9722 2.0435 5.2014 5.2015 5.2014a5.071 5.071 0 0 0 5.2015-5.2014c0-2.9723-2.0433-5.2015-5.2015-5.2015a5.072 5.072 0 0 0-5.2015 5.2015zm25.0786-4.83v14.1183h-5.2014V35.595h-2.0435v-4.4584h2.0435v-6.316h5.2014v6.316h3.5297v4.4584zm15.7902 0c-1.3004-1.1146-2.415-1.3003-2.9722-1.3003-1.3005 0-2.0435.5573-2.0435 1.486 0 .5573.1857 1.1146 1.6718 1.672l1.3004.3715c1.4862.5573 3.7154 1.1146 4.6442 2.6008.5572.743.9288 1.8576.9288 3.158 0 1.672-.5573 3.3438-2.0435 4.6442s-3.3437 2.0434-5.573 2.0434c-3.9012 0-5.9445-1.8577-7.245-3.158l2.7865-3.158c1.1146 1.1145 2.6007 2.23 4.087 2.23s2.6007-.743 2.6007-2.0434c0-1.1146-.9288-1.672-1.672-1.8577l-1.1146-.3715c-1.3004-.5573-2.7865-1.1146-3.9-2.2292-.93-.9288-1.486-2.0434-1.486-3.5295 0-1.8577.9288-3.3438 1.8576-4.2727 1.486-1.1146 3.3438-1.3004 4.83-1.3004 1.3004 0 3.5296.1858 5.9446 2.0435zm11.3317-2.0434c1.8577-2.6007 4.4585-2.9723 5.9446-2.9723 5.3872 0 9.1025 4.2727 9.1025 9.8457s-3.7153 9.8456-9.2884 9.8456c-1.1145 0-3.9-.1857-5.9444-2.9722v2.415h-5.0158v-31.209h5.2015zm-.5574 6.8734c0 2.9722 2.0435 5.2014 5.2016 5.2014a5.071 5.071 0 0 0 5.2014-5.2014c0-2.9723-2.0434-5.2015-5.2014-5.2015s-5.2016 2.2292-5.2016 5.2015zm24.1498 6.5018l-8.9168-15.7902h6.1303l5.7587 10.5887 5.2015-10.5887H207.5l-14.8612 28.4223h-5.9447zm-82.666-12.632H97.712v5.2014h6.8734c-1.1147 3.5296-3.7153 5.9446-8.5453 5.9446-5.3872 0-9.2884-4.4584-9.2884-9.8457s3.7155-10.0314 9.1026-10.0314c2.9723 0 5.9445 1.4862 7.802 3.9l4.2728-2.7865c-2.7865-3.9-7.245-6.1303-12.075-6.1303-8.1737 0-14.8614 6.6876-14.8614 15.047s6.316 15.047 14.8614 15.047 14.8614-6.6875 14.8614-15.047c.1857-.5573 0-.9288 0-1.3003zM64.315 35.3162H48.4095v4.5457h10.9082c-1.6 6.8176-6.59 12.4984-13.18 14.7722L20.0002 28.4986c2.727-7.9546 10.4532-13.6167 19.316-13.6167 6.8176 0 12.9534 3.4088 16.8174 8.638l3.41-2.9722c-4.5458-6.136-11.815-10.2265-20.2263-10.2265-11.8147 0-21.8165 8.4078-24.3354 19.5427l29.9975 29.9976C55.907 57.1326 64.315 47.13 64.315 35.3162zm-49.9972.2266c0 6.3626 2.5004 12.4984 7.2727 17.2707s11.135 7.2728 17.2707 7.2728z"/><path d="M39.3162 3.5C21.817 3.5 7.5 17.817 7.5 35.3163s14.317 31.8162 31.8162 31.8162 31.8163-14.317 31.8163-31.8162S56.8155 3.5 39.3162 3.5zM21.5904 53.044c-4.7742-4.7742-7.2727-11.135-7.2727-17.2708l24.77 24.5435c-6.3624-.2266-12.725-2.5004-17.4992-7.2727zm23.178 6.6077l-29.769-29.7895c2.5004-11.135 12.4983-19.5427 24.3354-19.5427 8.408 0 15.6787 4.0906 20.2263 10.2264l-3.4088 2.9723c-3.864-5.2274-9.9998-8.6382-16.8175-8.6382-8.86 0-16.3623 5.6808-19.316 13.6353L46.1525 54.65c6.59-2.272 11.5918-7.9545 13.1802-14.7722H48.4095v-4.5605h15.907c0 11.8147-8.4076 21.8164-19.5425 24.3354z" fill="#639"/></svg>