<svg xmlns="http://www.w3.org/2000/svg" width="222" height="70" stroke="none" stroke-linecap="round" stroke-linejoin="round" fill="#e10098" fill-rule="nonzero"><path d="M87.61 21.7166q-1.55 0-2.827.4125-1.2393.3795-2.1726 1.278-.8964.8617-1.4483 2.2423-.517 1.3786-.5866 3.2917-.1085 3.1038 0 6.2077.0697 1.9305.5866 3.2917.552 1.3787 1.4483 2.277.9295.8617 2.1726 1.278 1.278.3795 2.827.3795 1.522 0 2.827-.4124 1.305-.4493 2.2423-1.305.9682-.8965 1.522-2.277.552-1.3786.552-3.2413V33.381h-6.0084q-.76 0-.76-.7745v-.484q0-.7745.76-.7745h7.3773q.7746 0 .7746.7745v3.0342q0 2.0718-.6197 3.795-.6195 1.6904-1.8278 2.9354-1.1715 1.2393-2.9354 1.9305-1.7427.6545-3.9308.6545-2.2422 0-3.9306-.6545-1.6905-.6893-2.862-1.8976-1.1385-1.2063-1.758-2.8618-.5866-1.6904-.6545-3.7254-.0697-1.549-.0697-3.2763 0-1.7426.0697-3.2762.0696-2.033.6893-3.6905.6196-1.6904 1.7582-2.8967 1.1714-1.2063 2.8618-1.8627 1.6905-.6894 3.8958-.6894 2.3817 0 4.0702.7242 1.6903.7242 2.7592 1.7427 1.0688 1 1.5878 2.1047.517 1.1037.5518 1.828.0348.3098-.1743.517-.207.1742-.5518.1742h-.759q-.3097 0-.449-.1355-.1355-.1743-.275-.5518-.275-.7746-.7746-1.549-.484-.7745-1.305-1.3786-.8268-.6196-1.9654-1.001-1.1385-.3795-2.6914-.3795zm16.2804 6.8603q1.2392-2.3816 4.6896-2.3816h1.278q.7592 0 .7592.76v.484q0 .76-.7592.76h-1.483q-2.0718 0-3.276 1.2063-1.2065 1.2063-1.2065 3.2762v10.6884q0 .3447-.242.552-.2072.207-.552.207h-.5518q-.76 0-.76-.76v-16.381q0-.3446.2072-.5518.2072-.242.5518-.242h.5518q.3447 0 .552.242.242.2072.242.5518v1.5878zm21.2992 15.56q-.76 0-.76-.76v-1.6207q-.3098.484-.8268.968-.484.484-1.2063.8617-.7242.3795-1.7427.6196-1 .275-2.343.275-1.2392 0-2.3817-.3795-1.1037-.4125-1.9653-1.1037-.8268-.6894-1.3438-1.6207-.484-.9294-.484-2.033 0-1.1715.484-2.1048.517-.9294 1.4135-1.6207.8966-.724 2.1377-1.1714 1.278-.484 2.794-.6893l5.4488-.759V31.793q0-1.8627-1.1385-2.8967-1.1037-1.034-3.5513-1.034-1.9304 0-3.0012.759-1.034.7242-1.305 1.5877-.1356.4125-.3447.5867-.1743.1356-.484.1356h-.484q-.31 0-.552-.2072-.207-.242-.207-.5518 0-.484.3446-1.2064.3446-.724 1.1037-1.4135.7745-.6893 2.0002-1.1714 1.2062-.517 2.9354-.517 2.0332 0 3.346.5518 1.3437.552 2.1046 1.4484.759.8616 1.034 1.9305.31 1.0688.31 2.1047V43.382q0 .76-.76.76h-.5868zm-6.5175-1.6555q1.1713 0 2.2073-.3796 1.069-.4124 1.8627-1.2062.7745-.7746 1.2393-2.0002.4492-1.2064.4492-2.827V34.897l-4.4477.6196q-5.7237.7745-5.7237 3.6558 0 .8616.3795 1.483.4125.6197 1.034 1.034.6196.4124 1.4135.6196.7745.1743 1.5878.1743zm21.214 2.0002q-2.1725 0-3.5512-.7745-1.3786-.7746-2.2422-1.9305v8.171q0 .759-.76.759h-.5868q-.76 0-.76-.759V26.9543q0-.76.76-.76h.5868q.76 0 .76.76v1.6207q.8617-1.1715 2.2422-1.9305 1.3787-.7745 3.5512-.7745 2.0002 0 3.379.7242 1.4134.6893 2.277 1.8627.8617 1.1385 1.2393 2.6217.4125 1.4484.484 2.9664.0348.517.0348 1.1386 0 .6196-.0348 1.1385-.0697 1.522-.484 3.0013-.3796 1.4483-1.2393 2.6217-.8616 1.1386-2.277 1.8627-1.3787.6893-3.379.6893zm-5.7934-10.5528q-.035.517-.035 1.3437 0 .8268.035 1.3438.0348 1.034.3447 2.1048.3447 1.034 1.034 1.8627.6894.8268 1.7427 1.3787 1.034.517 2.4823.517 1.522 0 2.5173-.517 1.034-.517 1.6555-1.3787.6544-.8965.9293-2.033.31-1.1715.3796-2.4146.0348-.968 0-1.9304-.0697-1.2393-.3796-2.3817-.275-1.1385-.9293-2.0002-.6196-.8965-1.6555-1.4135-1.0012-.5518-2.5173-.5518-1.4832 0-2.5172.5518-1.034.552-1.7427 1.4484-.6543.8616-1 1.9304-.3098 1.069-.3447 2.1377zm20.0077-5.352q.9295-1.2063 2.2423-1.9653 1.305-.76 3.551-.76 1.7582 0 3.069.5867 1.305.5867 2.1725 1.6206.8965 1.034 1.3438 2.4494.449 1.4136.449 3.069v9.7938q0 .76-.759.76h-.581q-.76 0-.76-.76v-9.6234q0-2.7592-1.344-4.3102-1.3437-1.5878-3.9306-1.5878-2.4823 0-3.9655 1.549-1.4833 1.55-1.4833 4.3508v9.6234q0 .759-.76.759h-.5866q-.759 0-.759-.759V20.4q0-.76.759-.76h.5866q.76 0 .76.76v8.1712zm26.8952-8.9302q2 0 3.6557.5867 1.6555.5867 2.827 1.793 1.2062 1.1714 1.8626 2.9664.6894 1.758.759 4.1727.0697 1.55.0697 2.8967 0 1.3438-.0697 2.8967-.1743 4.9317-2.5173 7.2417l2.2074 3.104q.035.0697.0697.1355.035.0697.035.242 0 .275-.2072.484-.2072.207-.484.207h-.76q-.3795 0-.6545-.3098-.275-.275-.449-.484l-1.522-2.1048q-2.072 1-4.8292 1-4.31 0-6.655-2.31-2.31-2.3-2.4496-7.207-.0696-1.549-.0696-2.8967 0-1.3438.0696-2.8967.0698-2.4146.7243-4.1727.6894-1.793 1.8627-2.9664 1.2063-1.2064 2.827-1.793 1.6555-.5867 3.6905-.5867zm0 2.072q-1.4484 0-2.6915.4492-1.2392.4124-2.1725 1.3438-.9294.9294-1.4832 2.3816-.517 1.4484-.5867 3.4466-.0348.7745-.0697 1.4484 0 .6544 0 1.278 0 .6197 0 1.305.035.6545.0697 1.4135.0698 2.033.5867 3.4853.5518 1.4135 1.4483 2.343.9294.9294 2.1726 1.3786 1.2392.4124 2.7185.4124 1.4832 0 2.7186-.4124 1.2392-.4492 2.1376-1.3786.9295-.9295 1.4484-2.343.552-1.4483.6196-3.4853.035-.76.035-1.4135 0-.6893 0-1.305 0-.6196 0-1.278 0-.6545-.035-1.4484-.0697-2.0002-.6196-3.4466-.517-1.4483-1.4484-2.3816-.9294-.9294-2.1725-1.3438-1.2392-.4492-2.6914-.4492zm16.8322 20.3427h11.8966q.7746 0 .7746.7745v.517q0 .76-.7746.76h-13.31q-.76 0-.76-.76V20.7485q0-.76.76-.76h.6545q.76 0 .76.76v21.311zM15.6253 51.768l-2.3235-1.3438 25.9037-44.864L41.529 6.904z"/><path d="M12.7732 46.842h51.8075v2.6856H12.7732z"/><path d="M39.713 63.312L13.7975 48.3504l1.3438-2.3235 25.9134 14.9578zm22.5114-38.997l-25.9135-14.96 1.3438-2.3235L63.568 21.9936z"/><path d="M15.147 24.3074l-1.3438-2.3236L39.738 7.0395l1.3438 2.3235z"/><path d="M61.746 51.768L35.8403 6.904l2.3235-1.3438 25.9037 44.864zM14.8276 20.2025h2.6818V50.126h-2.6818zm45.0305 0h2.6856V50.126H59.856z"/><path d="M39.254 62.1756l-1.1734-2.033L60.62 47.1306l1.1735 2.033z"/><path d="M66.1026 50.9993c-1.561 2.7-5.0134 3.626-7.716 2.07s-3.626-5.0135-2.0698-7.7162 5.0134-3.626 7.716-2.07c2.7185 1.549 3.6402 5.0344 2.0718 7.7162m-45.0634-26.024c-1.56 2.7-5.0134 3.6262-7.716 2.07s-3.6262-5.0134-2.07-7.716 5.0134-3.626 7.716-2.07c2.7012 1.55 3.621 5.0344 2.072 7.716m-9.7707 26.024c-1.5528-2.7012-.631-6.1458 2.072-7.7162 2.701-1.553 6.1458-.6312 7.716 2.0718 1.553 2.7012.6312 6.146-2.0717 7.7162-2.7186 1.553-6.1633.6312-7.7163-2.0718m45.0634-26.024c-1.5528-2.701-.631-6.1458 2.072-7.716 2.701-1.553 6.1458-.6312 7.716 2.0718 1.553 2.7012.6313 6.1458-2.0718 7.7162-2.7027 1.5562-6.1552.63-7.7162-2.07M38.6828 66.84c-3.1213 0-5.6443-2.523-5.6443-5.6443s2.5288-5.6443 5.6443-5.6443 5.6443 2.523 5.6443 5.6443c-.0053 3.115-2.5292 5.64-5.6443 5.6443m0-52.0515c-3.1213 0-5.6443-2.523-5.6443-5.6443S35.5673 3.5 38.6828 3.5s5.6443 2.523 5.6443 5.6443c.0026 1.4977-.5913 2.935-1.6504 3.994a5.634 5.634 0 0 1-3.9939 1.6504"/></svg>