<svg xmlns="http://www.w3.org/2000/svg" width="222" height="70" stroke="none" stroke-linecap="round" stroke-linejoin="round" fill="#e10098" fill-rule="nonzero">
    <path d="M89.4544 22.4434q-1.5258 0-2.7846.4063-1.2207.3738-2.14 1.2587-.883.8488-1.4265 2.2087-.5092 1.3578-.578 3.2422-.1068 3.0574 0 6.1147.0688 1.9015.578 3.2424.5435 1.3578 1.4265 2.2428.9155.8488 2.14 1.2588 1.2588.374 2.7846.374 1.5 0 2.7844-.4062 1.2857-.4426 2.2088-1.2856.9535-.883 1.5-2.243.5436-1.358.5436-3.1928v-1.7317H90.572q-.7476 0-.7476-.763v-.4768q0-.763.7476-.763h7.2667q.7628 0 .7628.763v2.9886q0 2.0408-.6104 3.7382-.6102 1.665-1.8003 2.8914-1.154 1.2207-2.8914 1.9016-1.7166.6446-3.8717.6446-2.2087 0-3.8717-.6446-1.6652-.68-2.82-1.8692-1.1215-1.188-1.7317-2.819-.5778-1.665-.645-3.6695-.0685-1.5258-.0685-3.227 0-1.7165.0685-3.227.0687-2.0026.679-3.635.6103-1.665 1.732-2.8534 1.1537-1.188 2.8188-1.8347 1.665-.68 3.8375-.68 2.3458 0 4.01.7134 1.665.7133 2.7178 1.7164 1.0528.986 1.564 2.0733.509 1.087.5435 1.8004.0343.3052-.1717.5092-.204.1717-.5434.1717h-.7478q-.305 0-.4425-.1336-.1333-.1716-.2707-.5434-.2708-.763-.763-1.526-.4767-.763-1.2854-1.358-.8144-.6104-1.936-.986-1.1214-.374-2.65-.374zm16.036 6.7573q1.2207-2.346 4.6194-2.346h1.2586q.7478 0 .7478.7477v.4768q0 .7477-.7478.7477h-1.4608q-2.0407 0-3.227 1.1882-1.1883 1.1882-1.1883 3.227v10.528q0 .3394-.2383.5435-.204.204-.5437.204h-.5435q-.7476 0-.7476-.7476V27.635q0-.3394.204-.5436.204-.2383.5435-.2383h.5435q.3396 0 .5437.2383.2383.2042.2383.5436v1.564zm20.9797 15.3267q-.7475 0-.7475-.7476v-1.5964q-.305.477-.8144.9537-.477.4768-1.1884.8487-.7132.3738-1.7164.6103-.986.271-2.3078.271-1.2206 0-2.346-.3738-1.0873-.4063-1.9357-1.0872-.8146-.68-1.3237-1.5965-.477-.9153-.477-2.0025 0-1.154.477-2.0732.509-.9155 1.3922-1.5964.883-.7133 2.1056-1.154 1.2588-.4768 2.752-.679l5.367-.7476v-1.1883q0-1.8348-1.1215-2.8533-1.087-1.0184-3.498-1.0184-1.9015 0-2.956.7477-1.0186.7133-1.2856 1.564-.1335.4063-.3395.5778-.1716.1336-.4768.1336h-.4768q-.3053 0-.5436-.204-.204-.2384-.204-.5436 0-.4768.3395-1.1883.3393-.7133 1.087-1.3922.763-.68 1.9703-1.154 1.1882-.5092 2.8913-.5092 2.0027 0 3.2958.5434 1.3236.5436 2.073 1.4268.7477.8486 1.0185 1.9014.3053 1.0528.3053 2.0733v11.31q0 .7476-.7477.7476h-.578zm-6.4196-1.6306q1.1537 0 2.174-.374 1.053-.4062 1.835-1.1882.7627-.763 1.2205-1.9702.4426-1.1882.4426-2.7845v-1.154l-4.38.6104q-5.638.7628-5.638 3.601 0 .8487.3738 1.461.4063.6103 1.0185 1.0185.6103.4062 1.3924.6103.7628.1717 1.564.1717zm20.8958 1.9702q-2.14 0-3.498-.763-1.358-.7628-2.2086-1.9015v8.0486q0 .7476-.7476.7476h-.578q-.7476 0-.7476-.7476V27.6025q0-.7477.7476-.7477h.578q.7476 0 .7476.7477v1.5964q.8487-1.1538 2.2086-1.9014 1.358-.763 3.498-.763 1.97 0 3.3282.7133 1.392.68 2.243 1.8347.8487 1.1215 1.2206 2.5825.4062 1.4266.4768 2.922.0342.5092.0342 1.1215 0 .6103-.0342 1.1214-.0687 1.499-.4768 2.9563-.374 1.4265-1.2206 2.5824-.8488 1.1214-2.243 1.8347-1.358.679-3.3282.679zm-5.7066-10.3946q-.0344.5092-.0344 1.3237 0 .8144.0344 1.3236.0343 1.0184.3395 2.0732.3396 1.0185 1.0184 1.8348.679.8143 1.7166 1.358 1.0184.5092 2.445.5092 1.5 0 2.4795-.5092 1.0184-.5093 1.6307-1.358.6446-.883.9153-2.0027.3053-1.154.374-2.3784.0343-.9535 0-1.9015-.0686-1.2205-.374-2.3458-.2707-1.1215-.9153-1.9702-.6103-.883-1.6307-1.3924-.9862-.5435-2.4795-.5435-1.461 0-2.4795.5435-1.0183.5437-1.7166 1.4266-.6444.8488-.986 1.9016-.305 1.0528-.3395 2.1056zm19.7076-5.2717q.9156-1.188 2.2086-1.9358 1.2855-.7476 3.498-.7476 1.7318 0 3.023.578 1.2855.5778 2.1398 1.5963.883 1.0185 1.3237 2.4128.4424 1.3922.4424 3.023v9.647q0 .7476-.7475.7476h-.5722q-.7477 0-.7477-.7476v-9.479q0-2.7177-1.3236-4.2455-1.3236-1.564-3.8717-1.564-2.445 0-3.906 1.5258-1.46 1.526-1.46 4.2856v9.479q0 .7476-.7475.7476h-.578q-.7477 0-.7477-.7476V21.1464q0-.7476.7477-.7476h.578q.7475 0 .7475.7476v8.0486zm26.4918-8.7962q1.97 0 3.6008.578 1.6307.5778 2.7846 1.766 1.1882 1.1538 1.8348 2.9218.68 1.7318.7477 4.1102.0687 1.5258.0687 2.8533 0 1.3235-.0687 2.853-.1717 4.8578-2.4795 7.1332l2.1743 3.0574q.0344.0686.0686.1334.0344.0687.0344.2385 0 .2707-.204.4767-.204.204-.4768.204h-.7477q-.3737 0-.6446-.305-.271-.2708-.4424-.4768L186.19 43.875q-2.0407.986-4.7567.986-4.2455 0-6.555-2.2753-2.2754-2.2754-2.4128-7.0988-.0687-1.5257-.0687-2.853 0-1.3237.0687-2.8533.0688-2.3784.7134-4.1102.68-1.766 1.8347-2.9218 1.1882-1.1883 2.7846-1.766 1.6306-.578 3.6352-.578zm0 2.0408q-1.4267 0-2.651.4425-1.2206.4062-2.14 1.3236-.9154.9155-1.461 2.346-.5093 1.4267-.578 3.395-.0343.763-.0687 1.4267 0 .6447 0 1.2587 0 .6103 0 1.2855.0344.6447.0687 1.3923.0686 2.0026.578 3.433.5435 1.3924 1.4265 2.3077.9155.9156 2.14 1.358 1.2206.4063 2.6777.4063 1.46 0 2.6777-.4063 1.2208-.4424 2.1058-1.358.9154-.9153 1.4265-2.3077.5437-1.4266.6103-3.433.0344-.7476.0344-1.3923 0-.68 0-1.2855 0-.6102 0-1.2587 0-.6447-.0344-1.4267-.0686-1.97-.6103-3.395-.5093-1.4266-1.4265-2.346-.9156-.9154-2.1402-1.3236-1.2205-.4425-2.651-.4425zM198.019 42.483h11.7182q.763 0 .763.7628v.5093q0 .7476-.763.7476h-13.1105q-.7476 0-.7476-.7476V21.4898q0-.7476.7476-.7476h.6447q.7476 0 .7476.7476V42.48zm-179.4704 9.56l-2.2887-1.3235L41.775 6.5293l2.2887 1.3237z"/>
    <path d="M15.7392 47.192h51.0304v2.6453H15.7392z"/>
    <path d="M42.2746 63.415L16.748 48.6776l1.3236-2.2887 25.5247 14.7335zm22.1738-38.412L38.9236 10.2675l1.3236-2.2887L65.772 22.716z"/>
    <path d="M18.0775 24.9953l-1.3236-2.2886L42.2996 7.9864l1.3236 2.2887z"/>
    <path d="M63.9773 52.044L38.4602 7.853l2.2886-1.3237 25.5152 44.191zM17.7627 20.952h2.6415v29.4746h-2.6415zm44.355 0h2.6453v29.4746h-2.6472z"/>
    <path d="M41.8226 62.2953l-1.1558-2.0026L62.8672 47.476l1.1557 2.0026z"/>
    <path d="M68.2686 51.2868c-1.5375 2.6595-4.9383 3.5717-7.6003 2.039s-3.5718-4.9384-2.039-7.6005 4.9382-3.5717 7.6004-2.0388c2.6778 1.5258 3.5856 4.9588 2.0408 7.6004M23.883 25.6533c-1.5375 2.6595-4.9383 3.5717-7.6004 2.039s-3.5718-4.9383-2.039-7.6004 4.9383-3.5717 7.6004-2.039c2.6607 1.526 3.5666 4.9588 2.041 7.6004M14.26 51.2868c-1.5296-2.6607-.6217-6.0536 2.0407-7.6004 2.6607-1.5297 6.0536-.6218 7.6004 2.0407 1.5297 2.6606.6217 6.0536-2.0407 7.6004-2.6778 1.5297-6.0708.6218-7.6004-2.0407m44.3873-25.6335c-1.5294-2.6606-.6217-6.0536 2.0408-7.6004 2.6606-1.5296 6.0538-.6217 7.6004 2.0407 1.5297 2.6607.6218 6.0536-2.0407 7.6005-2.6622 1.533-6.063.6206-7.6005-2.039M41.26 66.9c-3.0745 0-5.5596-2.4852-5.5596-5.5597s2.4907-5.5596 5.5596-5.5596 5.5595 2.4852 5.5595 5.5596c-.0052 3.0683-2.4912 5.5544-5.5595 5.5597m0-51.2708c-3.0745 0-5.5596-2.4852-5.5596-5.5595S38.1912 4.5 41.26 4.5s5.5595 2.4852 5.5595 5.5597c.0026 1.4752-.5824 2.8908-1.6256 3.934s-2.4586 1.6282-3.934 1.6256"/>
</svg>